<?xml version="1.0" standalone="no"?>
<!DOCTYPE svg PUBLIC "-//W3C//DTD SVG 20010904//EN"
 "http://www.w3.org/TR/2001/REC-SVG-20010904/DTD/svg10.dtd">
<svg version="1.0" xmlns="http://www.w3.org/2000/svg"
 width="780.000000pt" height="490.000000pt" viewBox="0 0 780.000000 490.000000"
 preserveAspectRatio="xMidYMid meet">

<g transform="translate(0.000000,490.000000) scale(0.100000,-0.100000)"
fill="#000000" stroke="none">
<path d="M17 4883 c-4 -3 -7 -1094 -7 -2423 0 -1917 3 -2420 13 -2433 11 -16
252 -17 3882 -15 l3870 3 0 2435 0 2435 -3876 3 c-2132 1 -3879 -1 -3882 -5z
m819 -154 c56 -17 77 -31 124 -77 79 -80 103 -135 108 -247 3 -74 0 -100 -18
-147 -27 -72 -99 -153 -172 -193 -50 -28 -60 -30 -163 -30 -101 0 -115 2 -168
29 -77 37 -123 85 -160 164 -57 123 -46 272 29 373 96 132 253 179 420 128z
m1061 0 c71 -23 168 -110 204 -181 34 -66 38 -195 10 -281 -34 -100 -74 -146
-174 -197 l-85 -42 -93 4 c-115 5 -166 27 -239 101 -104 106 -134 232 -89 376
20 66 31 84 84 136 48 48 73 65 125 82 85 29 177 29 257 2z m1088 -13 c73 -36
149 -110 178 -174 18 -39 22 -65 22 -153 0 -97 -2 -110 -30 -164 -20 -40 -50
-76 -92 -111 -81 -69 -143 -88 -264 -82 -74 5 -95 10 -143 37 -76 44 -137 117
-166 197 -19 55 -22 78 -17 144 5 81 35 163 75 205 54 58 95 88 148 111 50 21
72 24 144 22 70 -3 95 -8 145 -32z m1043 13 c48 -16 76 -34 123 -81 88 -86
104 -127 104 -263 0 -101 -2 -114 -28 -163 -36 -68 -94 -124 -165 -159 -51
-25 -67 -28 -162 -28 -91 0 -112 3 -155 25 -67 33 -135 102 -171 175 -26 54
-29 70 -29 155 0 82 4 103 27 153 40 85 117 157 198 184 85 29 177 29 258 2z
m1048 5 c152 -51 262 -212 252 -367 -6 -93 -56 -186 -135 -254 -81 -68 -144
-87 -264 -81 -74 5 -95 10 -143 37 -151 87 -218 260 -169 435 23 82 120 185
208 221 73 30 177 33 251 9z m1096 -12 c67 -30 151 -116 182 -187 37 -82 37
-216 1 -292 -36 -79 -103 -144 -186 -183 -68 -31 -76 -32 -163 -28 -112 6
-190 41 -257 116 -165 184 -88 501 142 580 83 29 209 26 281 -6z m1029 12 c65
-18 156 -85 194 -142 109 -165 73 -366 -88 -494 -66 -52 -139 -71 -242 -66
-65 3 -94 10 -140 33 -76 39 -137 108 -171 195 -24 62 -26 78 -22 152 7 105
30 156 106 231 101 100 223 130 363 91z m-6339 -782 c70 -31 161 -127 188
-198 29 -78 25 -213 -9 -290 -29 -66 -100 -135 -181 -175 -86 -43 -182 -46
-280 -9 -76 29 -170 117 -203 190 -31 68 -31 226 0 293 46 99 114 161 222 203
54 21 203 13 263 -14z m1065 -6 c73 -33 139 -99 174 -172 20 -41 23 -65 24
-154 0 -129 -17 -172 -102 -257 -48 -48 -73 -64 -137 -87 -99 -36 -163 -33
-266 15 -142 65 -218 195 -208 352 7 97 40 167 115 239 78 77 137 99 253 95
68 -2 97 -8 147 -31z m1051 4 c134 -63 203 -163 210 -305 7 -142 -34 -234
-140 -313 -73 -55 -163 -86 -230 -80 -135 12 -261 97 -316 215 -23 50 -27 71
-27 153 0 87 3 101 32 160 42 85 93 133 179 170 57 24 83 30 149 30 68 0 89
-4 143 -30z m1079 -4 c73 -33 140 -100 175 -172 20 -42 23 -64 23 -154 -1
-130 -18 -173 -102 -257 -75 -75 -180 -118 -271 -111 -144 11 -283 118 -323
250 -16 53 -20 87 -17 141 6 95 35 158 106 230 89 91 129 107 262 104 69 -2
97 -8 147 -31z m1036 12 c81 -34 148 -96 193 -180 36 -67 39 -79 39 -153 0
-115 -28 -182 -111 -262 -80 -77 -149 -107 -249 -108 -142 0 -272 83 -334 214
-23 49 -26 69 -26 156 0 95 2 103 34 160 57 100 105 142 210 180 59 22 184 19
244 -7z m1095 -18 c128 -68 192 -176 192 -325 0 -111 -27 -175 -108 -254 -178
-174 -457 -129 -573 93 -27 51 -33 75 -36 146 -7 116 17 178 100 267 34 36 73
70 87 75 87 36 99 38 185 35 80 -3 97 -7 153 -37z m1054 12 c60 -27 163 -130
179 -180 6 -20 17 -43 23 -51 6 -8 11 -51 11 -100 0 -75 -4 -94 -32 -151 -110
-231 -402 -287 -580 -112 -31 31 -67 79 -82 111 -22 48 -26 69 -26 151 0 85 3
101 29 154 49 101 104 149 215 192 54 21 203 13 263 -14z m-1081 -769 c89 -42
144 -93 185 -175 31 -62 34 -75 34 -158 0 -80 -4 -97 -30 -154 -35 -73 -102
-140 -178 -178 -40 -20 -62 -23 -152 -23 -95 1 -110 3 -160 29 -280 144 -262
542 30 667 91 39 178 36 271 -8z m-5335 11 c106 -36 209 -143 235 -246 17 -70
7 -194 -19 -248 -34 -70 -103 -142 -167 -174 -95 -48 -241 -48 -339 2 -55 27
-123 101 -152 165 -26 55 -29 73 -29 157 0 82 4 103 26 150 66 137 177 208
330 209 36 1 88 -6 115 -15z m1070 -6 c80 -26 157 -94 200 -178 27 -50 29 -64
29 -160 0 -131 -21 -184 -101 -260 -83 -78 -128 -95 -254 -95 -91 0 -112 3
-154 24 -63 31 -139 110 -174 181 -23 48 -27 67 -27 150 0 84 3 102 29 154 41
83 120 159 193 184 79 28 175 28 259 0z m1051 5 c78 -25 173 -106 209 -180 26
-53 29 -68 29 -163 0 -85 -4 -113 -21 -150 -28 -60 -108 -141 -175 -177 -50
-26 -63 -28 -159 -28 -130 1 -177 19 -258 103 -113 115 -133 283 -53 441 26
50 117 124 186 151 64 24 170 26 242 3z m1105 -15 c70 -32 151 -111 181 -176
18 -39 22 -65 22 -152 0 -131 -21 -184 -101 -260 -69 -65 -129 -92 -220 -98
-137 -9 -225 29 -311 131 -88 105 -108 261 -48 384 40 80 119 155 192 182 83
30 206 25 285 -11z m1025 15 c78 -25 173 -106 209 -180 26 -53 29 -68 29 -163
0 -90 -3 -112 -24 -153 -31 -64 -105 -138 -172 -174 -50 -26 -63 -28 -159 -28
-130 1 -177 19 -259 102 -43 45 -61 73 -80 126 -61 175 15 367 179 452 73 38
190 46 277 18z m2129 0 c63 -19 153 -87 189 -141 36 -55 65 -144 65 -200 0
-95 -61 -220 -137 -280 -84 -65 -119 -77 -233 -77 -94 0 -111 3 -161 28 -69
33 -132 99 -167 175 -37 79 -39 210 -4 292 25 59 107 151 157 177 84 45 200
55 291 26z m-6365 -782 c33 -12 80 -43 116 -76 80 -72 105 -129 111 -250 6
-125 -18 -186 -103 -270 -86 -85 -151 -109 -273 -103 -72 4 -97 10 -147 35
-76 39 -126 92 -162 168 -25 53 -28 71 -28 160 1 124 17 165 101 250 107 109
247 140 385 86z m1059 -1 c48 -18 78 -38 122 -82 90 -90 103 -122 103 -253 0
-92 -4 -118 -22 -157 -34 -73 -98 -136 -178 -174 -60 -29 -80 -34 -145 -34
-117 0 -172 21 -247 93 -115 110 -149 237 -103 388 19 63 30 81 83 134 112
111 240 139 387 85z m1032 8 c119 -38 213 -129 244 -235 24 -83 16 -204 -19
-275 -34 -69 -99 -130 -179 -168 -53 -25 -75 -30 -140 -30 -150 0 -269 74
-334 205 -26 54 -29 70 -29 155 1 81 4 103 27 151 37 81 116 155 203 190 85
34 139 36 227 7z m1098 -8 c49 -18 78 -38 123 -83 85 -85 102 -128 102 -257 0
-96 -2 -110 -28 -160 -40 -76 -98 -133 -171 -167 -55 -25 -71 -28 -166 -28
-124 1 -159 15 -241 97 -67 67 -101 141 -107 233 -10 161 80 311 219 362 30
11 61 23 69 26 30 13 137 0 200 -23z m1060 1 c81 -30 162 -107 202 -189 28
-58 33 -77 33 -147 0 -70 -4 -89 -32 -148 -38 -79 -115 -160 -182 -190 -29
-12 -77 -22 -129 -25 -74 -4 -92 -1 -151 22 -97 38 -146 84 -193 180 -39 80
-40 82 -35 172 5 112 28 164 107 242 76 75 168 114 260 108 36 -2 90 -13 120
-25z m1059 -1 c84 -31 170 -113 207 -197 24 -53 26 -67 22 -158 -5 -113 -18
-149 -88 -227 -27 -31 -67 -60 -115 -84 -73 -36 -76 -37 -167 -32 -61 4 -108
12 -138 26 -64 28 -146 111 -178 179 -23 50 -27 71 -27 153 0 82 4 103 26 151
41 86 100 143 194 184 69 31 88 35 140 32 33 -2 89 -14 124 -27z m1071 1 c131
-49 229 -185 238 -327 4 -66 2 -77 -32 -148 -41 -88 -114 -166 -185 -199 -37
-17 -67 -21 -146 -22 -89 0 -107 3 -161 28 -75 35 -121 82 -165 167 -32 61
-34 71 -33 165 0 122 19 169 103 252 77 76 169 115 261 109 36 -2 90 -13 120
-25z m-6357 -780 c72 -35 161 -130 187 -199 18 -47 21 -72 18 -147 -5 -110
-25 -158 -96 -236 -68 -74 -129 -101 -242 -107 -116 -5 -182 19 -267 100 -86
83 -108 135 -108 258 0 82 4 103 26 150 45 95 114 158 217 197 59 21 206 13
265 -16z m1074 -10 c126 -67 183 -158 191 -302 7 -122 -14 -177 -100 -265 -79
-82 -125 -104 -228 -111 -69 -5 -156 10 -205 35 -16 8 -56 41 -87 73 -46 48
-61 71 -78 125 -50 162 1 324 133 421 68 50 116 63 222 60 80 -3 97 -7 152
-36z m1048 9 c63 -32 151 -120 179 -179 31 -67 31 -235 -1 -303 -27 -60 -102
-134 -173 -173 -51 -28 -63 -30 -155 -30 -88 0 -107 3 -157 27 -71 33 -143
106 -177 178 -22 47 -26 69 -26 150 0 83 4 102 28 155 34 73 86 128 152 162
76 39 93 43 190 40 72 -2 100 -8 140 -27z m1082 -9 c79 -43 129 -92 162 -161
23 -48 26 -67 26 -160 0 -130 -17 -173 -104 -258 -69 -68 -123 -92 -221 -99
-210 -15 -373 123 -388 328 -6 88 12 157 59 227 79 119 168 164 314 159 79 -3
97 -7 152 -36z m1011 24 c79 -24 173 -108 214 -193 29 -59 33 -77 33 -147 0
-110 -28 -178 -104 -254 -86 -86 -134 -106 -256 -106 -88 0 -107 3 -157 27
-71 33 -143 106 -177 178 -23 48 -26 68 -26 155 0 90 3 105 28 153 50 96 129
163 227 193 43 13 164 10 218 -6z m1110 -25 c128 -68 192 -176 192 -325 0
-110 -26 -171 -108 -253 -48 -48 -72 -64 -127 -82 -136 -45 -298 -9 -386 87
-129 140 -133 361 -7 498 79 87 154 116 288 112 75 -3 93 -7 148 -37z m1052
14 c25 -12 72 -48 105 -81 121 -121 147 -263 74 -409 -44 -88 -132 -166 -215
-190 -82 -24 -193 -16 -267 18 -132 62 -213 196 -205 340 4 85 48 191 101 246
31 32 104 76 157 93 46 15 201 5 250 -17z m-6424 -754 c112 -39 208 -132 239
-234 8 -27 15 -83 15 -123 0 -138 -83 -263 -218 -326 -59 -27 -69 -29 -155
-25 -75 4 -102 9 -147 32 -73 37 -125 88 -163 161 -30 57 -32 66 -32 170 0
104 2 113 29 160 38 65 128 151 173 166 19 6 47 17 61 25 39 20 129 17 198 -6z
m1056 3 c7 -6 29 -16 49 -22 45 -14 150 -115 181 -173 20 -38 23 -57 23 -158
0 -107 -2 -118 -27 -160 -51 -84 -96 -128 -173 -166 -72 -36 -76 -36 -167 -32
-76 4 -103 9 -145 31 -68 35 -138 108 -171 177 -23 47 -26 69 -27 150 0 85 3
101 29 155 40 81 116 153 197 187 54 23 76 27 141 24 42 -1 83 -7 90 -13z
m1065 -5 c116 -43 197 -118 234 -217 27 -73 24 -212 -8 -281 -28 -64 -111
-146 -180 -178 -51 -24 -70 -27 -158 -27 -90 0 -105 3 -153 28 -72 38 -138
106 -170 175 -24 50 -27 69 -27 157 0 90 3 106 28 155 46 89 112 146 216 187
73 28 144 29 218 1z m1065 5 c7 -6 30 -16 50 -22 46 -15 147 -111 179 -171 21
-40 24 -58 24 -160 0 -108 -2 -118 -29 -167 -39 -70 -84 -114 -159 -154 -78
-41 -190 -51 -280 -25 -74 21 -166 105 -210 190 -28 56 -31 69 -32 156 0 85 3
101 29 155 40 81 116 153 197 187 54 23 76 27 141 24 42 -1 83 -7 90 -13z
m1085 -12 c81 -30 163 -104 199 -178 39 -79 45 -195 15 -286 -27 -79 -98 -160
-182 -203 -49 -27 -63 -29 -159 -29 -96 0 -110 3 -158 28 -78 41 -127 91 -164
165 -30 62 -33 74 -33 167 0 122 20 170 104 254 106 106 237 134 378 82z
m1079 -10 c88 -40 154 -105 189 -184 21 -47 25 -73 25 -146 0 -81 -3 -94 -36
-159 -41 -83 -92 -131 -182 -175 -60 -28 -69 -29 -156 -25 -81 4 -101 9 -155
38 -76 41 -140 115 -171 198 -49 130 -7 299 96 391 116 104 254 126 390 62z
m1044 13 c138 -51 236 -179 248 -320 7 -95 -34 -200 -108 -274 -86 -86 -132
-105 -260 -105 -98 0 -109 2 -166 32 -73 38 -126 95 -159 170 -21 46 -25 71
-25 152 0 130 18 177 96 256 36 38 76 67 98 75 21 7 50 18 64 26 43 22 132 17
212 -12z"/>
</g>
</svg>
